<?xml version="1.0" encoding="UTF-8" standalone="no"?>
<!DOCTYPE svg PUBLIC "-//W3C//DTD SVG 1.1//EN" "http://www.w3.org/Graphics/SVG/1.1/DTD/svg11.dtd">
<svg width="100%" height="100%" viewBox="0 0 4909 4392" version="1.1" xmlns="http://www.w3.org/2000/svg" xmlns:xlink="http://www.w3.org/1999/xlink" xml:space="preserve" xmlns:serif="http://www.serif.com/" style="fill-rule:evenodd;clip-rule:evenodd;stroke-linejoin:round;stroke-miterlimit:2;">
    <g id="Image" transform="matrix(4.166667,0,0,4.166667,0,0)">
        <path id="path1" d="M459.739,882.529C455.469,881.363 451.739,877.421 451.739,874.073C451.739,870.39 449.094,867.023 444.873,865.334C442.812,864.51 440.593,863.193 439.942,862.408C439.271,861.6 438.645,857.041 438.498,851.898C438.25,843.19 438.353,842.697 440.989,839.935C442.502,838.351 443.739,836.54 443.739,835.91C443.739,834.154 449.405,830.255 458.239,825.932C465.583,822.337 470.443,819.053 485.72,807.359C491.991,802.559 494.61,801.087 496.739,801.166C497.564,801.196 498.813,800.442 499.514,799.488C500.235,798.508 503.349,797.251 506.682,796.596C509.923,795.958 513.664,794.7 514.994,793.8C524.961,787.061 527.606,785.501 531.654,783.971C534.176,783.018 539.263,780.534 542.959,778.451C546.654,776.368 550.075,774.664 550.56,774.664C551.421,774.664 560.254,770.188 562.239,768.745C564.354,767.208 580.28,761.456 583.673,761.003C588.354,760.379 596.596,756.832 599.739,754.09C602.048,752.076 608.728,749.52 614.739,748.35C616.114,748.083 619.714,746.87 622.739,745.654C625.764,744.439 630.264,742.74 632.739,741.879C640.352,739.231 643.409,737.767 644.785,736.11C647.076,733.349 653.906,730.316 654.751,731.683C655.603,733.062 663.341,732.118 664.331,730.516C665.25,729.028 669.933,727.376 672.793,727.529C674.197,727.604 679.253,726.091 684.028,724.165C688.803,722.24 693.392,720.664 694.225,720.664C695.058,720.664 695.739,720.214 695.739,719.664C695.739,719.114 696.383,718.664 697.17,718.664C697.956,718.664 698.744,717.698 698.92,716.516C699.25,714.293 699.579,714.053 706.221,711.191C710.106,709.517 710.236,709.526 711.593,711.57C713.337,714.197 713.913,714.184 723.438,711.31C727.729,710.016 733.714,708.386 736.739,707.69C739.764,706.994 743.642,705.578 745.357,704.544C747.072,703.51 749.262,702.664 750.224,702.664C751.45,702.664 751.824,702.096 751.475,700.762C750.928,698.672 753.653,697.182 763.739,694.056C766.764,693.119 770.139,692.034 771.239,691.645C781.101,688.157 783.553,687.676 788.249,688.308C790.993,688.678 794.266,689.645 795.52,690.458C796.775,691.27 798.121,691.615 798.512,691.225C798.903,690.834 798.428,690.07 797.458,689.526C795.783,688.589 795.791,688.401 797.612,685.851C798.924,684.013 801.697,682.451 806.385,680.906C814.707,678.165 824.516,675.664 826.949,675.664C827.934,675.664 828.739,675.286 828.739,674.825C828.739,673.548 833.754,671.536 838.238,671.013C849.327,669.72 851.228,669.287 852.981,667.654C854.882,665.883 859.051,664.664 863.211,664.664C865.23,664.664 869.327,663.113 874.03,660.566C875.015,660.033 876.252,659.863 876.78,660.189C877.308,660.515 877.741,660.418 877.743,659.973C877.748,658.795 885.937,655.616 889.868,655.267C891.722,655.102 894.912,654.224 896.957,653.316C899.002,652.407 901.45,651.664 902.398,651.664C903.928,651.664 903.903,651.825 902.18,653.093C900.403,654.4 900.383,654.577 901.941,655.181C904.114,656.024 906.03,654.864 905.358,653.114C905.036,652.273 905.356,651.964 906.209,652.291C906.962,652.58 908.651,652.113 909.962,651.254C911.814,650.04 913.105,649.909 915.742,650.665C918.932,651.58 920.666,650.849 920.724,648.564C920.732,648.234 923.777,646.446 927.489,644.592C931.202,642.737 935.48,640.333 936.996,639.249C939.132,637.722 940.022,637.547 940.946,638.471C941.602,639.127 943.181,639.664 944.455,639.664C947.508,639.664 954.739,641.945 954.739,642.908C954.739,643.324 954.08,643.664 953.274,643.664C951.482,643.664 949.835,646.62 950.489,648.664C951.307,651.219 953.963,652.664 957.841,652.664C960.768,652.664 962.114,653.321 964.151,655.741C965.575,657.434 966.991,660.021 967.299,661.491C968.278,666.17 969.3,667.154 973.513,667.468C978.896,667.87 980.976,670.206 978.001,672.509C976.824,673.419 975.558,675.406 975.189,676.924C974.305,680.559 973.72,680.83 966.147,681.12C958.828,681.401 956.259,682.6 962.573,682.789C964.864,682.858 967.189,683.027 967.739,683.164C968.289,683.302 969.244,683.47 969.862,683.539C971.89,683.765 968.867,686.411 965.957,686.956C958.499,688.354 951.575,689.751 945.24,691.135C941.39,691.976 937.102,692.664 935.712,692.664C934.322,692.664 932.154,693.386 930.895,694.268C928.744,695.774 927.02,695.786 921.059,694.336C919.86,694.045 916.485,694.631 913.559,695.639C910.633,696.647 906.913,697.771 905.291,698.137C903.184,698.612 902.727,699.038 903.687,699.632C905.379,700.678 900.013,703.664 896.443,703.664C895.125,703.664 892.74,704.306 891.143,705.09C889.546,705.875 886.555,706.824 884.498,707.2C881.242,707.795 880.651,707.601 879.951,705.709C879.147,703.534 879.147,703.534 877.815,706.023C876.327,708.802 874.594,709.408 865.515,710.32C862.063,710.667 857.269,711.863 854.86,712.978C851.286,714.633 849.955,714.807 847.61,713.922C845.34,713.065 844.739,713.118 844.739,714.175C844.739,714.999 842.727,715.879 839.489,716.469C834.766,717.331 834.59,717.449 837.739,717.645C839.664,717.765 842.364,718.194 843.739,718.597C846.001,719.26 845.84,719.401 842.042,720.076C839.733,720.487 837.103,720.407 836.196,719.9C834.222,718.795 829.739,719.487 829.739,720.897C829.739,721.447 830.639,721.662 831.738,721.375C832.838,721.087 833.989,721.26 834.297,721.758C834.605,722.256 834.043,722.67 833.048,722.678C832.053,722.686 830.151,722.983 828.821,723.339C826.846,723.867 826.519,723.681 827.039,722.325C827.948,719.957 826.266,720.217 817.876,723.742C813.848,725.435 808.681,727.015 806.395,727.254C799.135,728.013 791.338,729.385 788.239,730.449C786.589,731.016 783.214,732.084 780.739,732.822C777.157,733.891 776.239,734.619 776.239,736.39C776.239,740.755 772.458,742.04 758.728,742.341C750.6,742.518 744.579,743.162 741.766,744.155C739.368,745.001 736.617,745.443 735.653,745.137C734.469,744.761 733.69,745.243 733.252,746.622C732.84,747.923 731.742,748.664 730.231,748.664C728.925,748.664 727.579,749.114 727.239,749.664C726.899,750.214 725.012,750.664 723.046,750.664C717.106,750.664 711.739,752.697 711.739,754.948C711.739,756.625 712.208,756.82 714.924,756.277C716.675,755.927 718.823,754.994 719.696,754.203C720.739,753.259 721.786,753.075 722.744,753.667C725.233,755.206 713.353,759.854 707.814,759.509C703.748,759.255 703.204,759.47 702.92,761.442C702.49,764.43 698.124,765.572 696.359,763.159C695.311,761.726 694.694,761.618 692.933,762.561C691.752,763.193 690.309,764.6 689.727,765.687C688.967,767.106 687.621,767.668 684.954,767.679C679.228,767.703 672.214,770.139 672.378,772.048C672.463,773.04 671.751,773.664 670.532,773.664C669.441,773.664 667.353,774.319 665.894,775.12C663.478,776.445 659.51,778.122 645.415,783.777C642.762,784.841 640.876,785.251 641.224,784.688C641.572,784.125 641.489,783.664 641.039,783.664C640.589,783.664 639.658,784.564 638.971,785.664C638.284,786.764 637.283,787.664 636.746,787.664C636.209,787.664 633.575,789.014 630.894,790.664C628.212,792.314 624.657,793.664 622.993,793.664C621.128,793.664 617.669,795.199 613.977,797.664C610.683,799.864 607.311,801.664 606.485,801.664C605.659,801.664 603.316,802.361 601.279,803.212C598.266,804.471 597.793,805.024 598.745,806.171C599.696,807.317 599.383,807.697 597.077,808.196C595.516,808.533 592.664,809.426 590.739,810.179C588.814,810.932 586.339,811.809 585.239,812.128C584.139,812.446 581.214,815.14 578.739,818.114C574.02,823.784 570.633,825.664 565.14,825.664C561.968,825.664 554.544,829.785 551.834,833.05C551.178,833.841 548.421,835.021 545.709,835.671C539.977,837.047 531.33,843.156 532.138,845.261C532.444,846.059 531.613,847.356 530.202,848.281C528.211,849.585 527.438,849.659 526.235,848.661C525.045,847.673 524.116,847.68 521.67,848.693C519.153,849.735 518.704,850.386 519.182,852.294C519.667,854.226 519.042,855.075 515.503,857.285C513.158,858.75 508.989,861.408 506.239,863.193C503.489,864.978 500.114,866.776 498.739,867.188C497.364,867.601 495.013,868.963 493.515,870.215C492.016,871.468 489.091,873.041 487.015,873.711C484.938,874.381 482.434,875.77 481.45,876.797C480.466,877.824 478.574,878.664 477.245,878.664C475.916,878.664 473.17,879.789 471.144,881.164C467.225,883.824 465.32,884.052 459.739,882.529ZM481.28,833.598C481.643,833.011 481.703,832.295 481.415,832.006C480.629,831.221 476.739,832.657 476.739,833.732C476.739,835.019 480.47,834.909 481.28,833.598ZM498.739,823.105C498.739,822.248 498.289,821.824 497.739,822.164C497.189,822.504 496.739,823.206 496.739,823.723C496.739,824.241 497.189,824.664 497.739,824.664C498.289,824.664 498.739,823.963 498.739,823.105ZM627.739,777.723C627.739,777.206 627.289,776.504 626.739,776.164C626.189,775.824 625.739,776.248 625.739,777.105C625.739,777.963 626.189,778.664 626.739,778.664C627.289,778.664 627.739,778.241 627.739,777.723ZM681.244,757.672C680.936,757.173 681.699,756.221 682.941,755.556C684.182,754.892 685.802,753.744 686.54,753.006C687.278,752.268 688.75,751.664 689.811,751.664C690.871,751.664 691.739,751.214 691.739,750.664C691.739,749.086 685.121,749.5 683.739,751.164C683.055,751.989 681.717,752.664 680.766,752.664C677.817,752.664 672.739,754.8 672.739,756.04C672.739,756.688 673.439,758.218 674.294,759.439C675.767,761.542 676.005,761.578 678.827,760.119C680.465,759.272 681.552,758.171 681.244,757.672ZM633.739,752.105C633.739,751.248 633.289,750.824 632.739,751.164C632.189,751.504 631.739,752.206 631.739,752.723C631.739,753.241 632.189,753.664 632.739,753.664C633.289,753.664 633.739,752.963 633.739,752.105ZM759.739,729.771C759.739,728.597 756.815,727.499 755.633,728.23C755.123,728.545 754.966,729.221 755.282,729.733C756.017,730.923 759.739,730.955 759.739,729.771L759.739,729.771ZM762.468,709.06C762.136,708.728 761.274,708.692 760.552,708.981C759.754,709.3 759.991,709.537 761.156,709.585C762.21,709.629 762.801,709.392 762.468,709.06L762.468,709.06ZM838.739,675.664C838.739,675.114 838.289,674.664 837.739,674.664C837.189,674.664 836.739,675.114 836.739,675.664C836.739,676.214 837.189,676.664 837.739,676.664C838.289,676.664 838.739,676.214 838.739,675.664ZM621.406,801.998C621.039,801.631 620.739,800.506 620.739,799.498C620.739,798.07 621.512,797.664 624.231,797.664C626.639,797.664 628.11,797.044 628.971,795.664C630.53,793.169 631.367,793.133 631.996,795.536C632.37,796.967 631.337,798.028 627.62,800.036C622.198,802.965 622.331,802.923 621.406,801.998ZM729.26,751.764C730.668,750.327 734.131,749.948 734.739,751.164C735.014,751.714 733.664,752.309 731.739,752.485C729.321,752.707 728.555,752.485 729.26,751.764ZM296.147,736.164C295.246,734.789 293.918,733.664 293.196,733.664C292.473,733.664 291.178,732.961 290.318,732.1C289.458,731.24 288.342,730.792 287.837,731.104C286.458,731.956 283.739,730.636 283.739,729.113C283.739,727.152 279.046,722.028 278.107,722.964C277.666,723.405 278.117,726.05 279.109,728.842C280.74,733.436 280.764,734.068 279.357,735.475C277.95,736.882 277.617,736.863 275.862,735.275C274.795,734.31 273.394,732.09 272.748,730.342C269.9,722.635 268.711,720.664 266.907,720.664C264.04,720.664 261.895,715.079 256.606,693.843C255.436,689.145 253.913,685.284 253.109,684.976C250.553,683.995 249.488,680.482 247.574,666.718C242.384,629.4 241.617,615.514 241.632,559.164C241.642,520.904 242.528,494.302 244.114,484.664C244.521,482.189 245.017,478.139 245.216,475.664C246.456,460.243 249.318,441.717 251.703,433.671C252.273,431.749 252.739,429.807 252.739,429.353C252.739,428.251 248.637,429.552 246.661,431.282C245.792,432.042 244.165,432.664 243.045,432.664C241.925,432.664 239.865,433.564 238.466,434.664C237.068,435.764 235.487,436.664 234.954,436.664C234.421,436.664 233.429,437.333 232.75,438.151C232.071,438.969 228.835,440.616 225.557,441.811C222.28,443.006 217.943,445.173 215.919,446.627C213.895,448.081 209.626,450.757 206.432,452.573C203.238,454.39 198.355,457.404 195.582,459.27C192.808,461.137 189.976,462.664 189.289,462.664C188.602,462.664 186.284,463.902 184.139,465.414C181.994,466.927 178.214,469.252 175.739,470.583C173.264,471.913 169.967,474.05 168.413,475.333C166.858,476.615 164.98,477.664 164.239,477.664C163.498,477.664 160.945,479.134 158.566,480.93C156.186,482.726 150.933,486.18 146.891,488.604C142.85,491.029 139.301,493.642 139.006,494.411C138.098,496.778 129.338,504.616 127.573,504.641C126.657,504.654 122.543,506.914 118.431,509.664C111.172,514.519 107.51,515.721 106.239,513.664C105.108,511.834 103.788,512.626 101.239,516.664C98.481,521.033 95.675,521.822 93.546,518.826C92.827,517.815 90.441,516.701 88.243,516.349C81.754,515.311 73.388,510.429 72.327,507.06C71.825,505.467 70.588,502.335 69.577,500.098C67.148,494.725 67.248,493.192 70.382,487.752C74.893,479.924 96.524,460.842 106.739,455.68C109.214,454.429 116.189,450.152 122.239,446.174C128.289,442.197 134.364,438.595 135.739,438.17C137.114,437.745 139.814,436.161 141.739,434.65C143.664,433.139 146.814,430.998 148.739,429.893C150.664,428.788 156.289,425.508 161.239,422.604C166.189,419.701 173.614,415.544 177.739,413.368C181.864,411.192 186.139,408.611 187.239,407.634C189.661,405.481 200.941,400.664 203.56,400.664C205.855,400.664 214.454,396.218 217.348,393.536C218.507,392.461 223.007,389.768 227.348,387.552C231.688,385.336 236.139,382.685 237.239,381.66C239.574,379.484 249.545,374.688 251.762,374.674C253.068,374.666 256.929,372.456 265.335,366.907C266.382,366.215 268.364,365.155 269.739,364.55C271.114,363.945 272.914,363.052 273.739,362.564C281.87,357.76 307.066,346.334 311.885,345.265C314.612,344.661 326.802,339.312 334.739,335.238C337.214,333.968 342.839,331.438 347.239,329.617C351.639,327.796 356.814,325.121 358.739,323.674C360.664,322.226 365.839,319.637 370.239,317.92C397.233,307.388 396.613,307.579 401.645,308.246C405.756,308.792 407.013,308.512 410.345,306.313C412.487,304.899 416.121,303.08 418.421,302.272C420.721,301.463 423.481,299.922 424.556,298.848C425.63,297.773 429.084,295.93 432.231,294.753C437.047,292.951 438.458,292.795 441.141,293.765C443.681,294.683 445.784,294.587 451.482,293.291C455.415,292.396 459.722,291.664 461.052,291.664C462.382,291.664 464.614,290.764 466.012,289.664C469.25,287.118 469.838,287.176 472.087,290.264C473.898,292.749 473.894,292.811 471.906,293.331C468.421,294.242 470.635,296.393 475.757,297.072C479.327,297.546 480.512,298.093 480.129,299.092C479.413,300.956 481.634,302.154 485.124,301.788C487.895,301.497 489.691,302.863 489.724,305.286C489.732,305.904 488.052,306.691 485.989,307.036C479.811,308.069 479.147,308.944 481.81,312.546C483.771,315.198 484.759,315.664 488.427,315.664C492.328,315.664 492.739,315.896 492.739,318.097C492.739,320.662 491.993,321.076 485.239,322.257C483.039,322.641 479.471,323.574 477.31,324.329C474.443,325.331 473.192,325.397 472.685,324.576C471.742,323.05 467.739,324.415 467.739,326.263C467.739,328.429 470.38,329.055 473.706,327.678C475.319,327.01 477.223,326.679 477.938,326.943C478.654,327.206 477.091,327.983 474.466,328.668C471.84,329.353 468.479,330.87 466.995,332.039C465.512,333.208 462.261,334.716 459.769,335.391C457.278,336.065 454.222,336.903 452.978,337.252C451.178,337.757 450.843,337.558 451.335,336.275C452.19,334.047 451.101,334.252 444.616,337.542C441.523,339.11 437.321,340.708 435.277,341.091C430.896,341.913 426.739,343.682 426.739,344.724C426.739,345.571 419.202,349.664 417.641,349.664C417.05,349.664 416.87,348.697 417.221,347.414C417.788,345.349 417.646,345.39 415.501,347.914C414.216,349.427 412.42,350.664 411.511,350.664C410.601,350.664 409.575,351.121 409.23,351.679C408.254,353.258 401.834,355.656 398.367,355.737C396.647,355.777 393.889,356.661 392.239,357.7C386.394,361.383 374.179,366.805 369.902,367.616C367.517,368.068 365.064,368.939 364.452,369.551C363.84,370.163 361.942,370.664 360.234,370.664C357.814,370.664 356.073,371.766 352.337,375.664C349.702,378.414 346.756,380.664 345.792,380.664C344.827,380.664 342.531,381.189 340.69,381.831C337.81,382.835 337.614,383.095 339.29,383.69C340.913,384.265 340.683,384.505 337.913,385.119C333.224,386.159 318.711,393.574 318.064,395.26C317.768,396.033 316.706,396.664 315.704,396.664C313.724,396.664 313.14,399.764 312.31,414.664C311.63,426.889 310.433,431.664 308.049,431.664C306.805,431.664 306.735,431.954 307.696,433.113C308.639,434.249 308.536,436.19 307.218,442.116C306.293,446.271 305.132,449.921 304.638,450.227C304.144,450.532 303.738,451.768 303.736,452.973C303.733,454.178 302.899,456.53 301.881,458.198C300.864,459.867 299.698,463.453 299.291,466.167C298.884,468.882 297.468,473.239 296.145,475.85C294.822,478.461 293.739,481.818 293.739,483.31C293.739,486.361 295.796,492.848 297.054,493.766C297.508,494.098 297.126,497.023 296.206,500.266C295.061,504.302 294.512,510.19 294.467,518.914C294.431,525.927 294.139,531.664 293.82,531.664C293.123,531.664 293.422,609.114 294.199,629.664C294.5,637.639 294.999,649.564 295.307,656.164C295.932,669.562 296.021,675.352 295.664,679.414C295.532,680.927 296.666,684.781 298.185,687.98C300.26,692.35 300.78,694.588 300.275,696.98C299.905,698.731 299.452,702.779 299.267,705.975C298.957,711.338 299.117,711.857 301.335,712.701C302.657,713.203 303.739,714.195 303.739,714.904C303.739,715.614 304.639,717.873 305.739,719.925C308.252,724.614 308.238,724.971 305.489,726.177C303.531,727.036 303.239,727.91 303.239,732.914C303.239,738.509 303.165,738.665 300.512,738.664C298.707,738.664 297.232,737.819 296.147,736.164ZM242.739,419.664C242.739,417.555 241.284,416.973 240.239,418.664C239.51,419.844 240.456,421.664 241.798,421.664C242.316,421.664 242.739,420.764 242.739,419.664ZM347.739,373.546C347.739,372.996 347.289,372.824 346.739,373.164C346.189,373.504 345.739,374.232 345.739,374.782C345.739,375.332 346.189,375.504 346.739,375.164C347.289,374.824 347.739,374.096 347.739,373.546ZM361.288,367.224C364.039,365.422 364.508,363.664 362.239,363.664C361.414,363.664 360.738,364.002 360.735,364.414C360.733,364.827 358.736,365.985 356.297,366.988C353.858,367.991 351.335,369.447 350.69,370.223C349.682,371.439 350.167,371.44 354.177,370.233C356.74,369.462 359.939,368.108 361.288,367.225L361.288,367.224ZM378.739,360.057C378.739,359.841 378.064,359.664 377.239,359.664C376.414,359.664 375.739,360.1 375.739,360.633C375.739,361.166 376.414,361.342 377.239,361.026C378.064,360.709 378.739,360.273 378.739,360.057ZM395.6,353.137C395.878,352.859 395.582,352.107 394.943,351.468C394.059,350.584 393.175,350.628 391.259,351.653C387.724,353.545 388.099,355.042 391.916,354.279C393.664,353.929 395.321,353.416 395.6,353.137ZM463.739,310.664C463.739,309.411 462.678,309.411 460.739,310.664C459.526,311.448 459.67,311.637 461.489,311.649C462.727,311.657 463.739,311.214 463.739,310.664ZM673.349,724.703C672.136,724.277 674.817,722.875 681.755,720.305C687.357,718.23 692.123,716.715 692.346,716.938C694.116,718.708 676.632,725.854 673.349,724.703ZM402.739,705.253C400.814,703.991 395.676,701.073 391.321,698.768C380.038,692.795 374.635,688.228 366.965,678.178C362.661,672.538 354.739,657.931 354.739,655.635C354.739,655.057 353.822,652.787 352.701,650.59C351.581,648.393 350.936,646.155 351.268,645.617C351.601,645.079 351.168,643.225 350.306,641.498C349.444,639.77 348.739,637.466 348.739,636.377C348.739,635.287 348.206,632.616 347.554,630.441C346.639,627.385 346.641,626.052 347.562,624.575C348.319,623.364 348.378,622.664 347.722,622.664C345.333,622.664 344.56,616.49 344.655,598.164C344.708,587.714 344.793,578.264 344.843,577.164C344.977,574.212 347.818,557.407 348.478,555.664C348.791,554.839 348.951,553.388 348.834,552.439C348.717,551.49 349.303,549.24 350.135,547.439C350.967,545.638 352.337,541.127 353.179,537.414C355.51,527.138 362.739,514.048 362.739,520.105C362.739,520.898 363.207,521.835 363.779,522.189C364.454,522.606 364.591,521.923 364.171,520.248C363.689,518.329 363.909,517.664 365.024,517.664C365.85,517.664 366.787,516.982 367.107,516.149C367.426,515.316 368.848,514.193 370.266,513.654C372.476,512.814 373.181,513.066 375.206,515.419C376.506,516.929 377.874,517.86 378.247,517.488C378.62,517.116 377.758,515.798 376.332,514.558C373.219,511.851 373.156,511.248 375.717,508.687C377.864,506.539 379.489,506.777 383.992,509.897C386.066,511.334 388.46,511.798 393.712,511.782C397.545,511.77 400.945,512.188 401.269,512.712C401.592,513.236 402.336,513.664 402.921,513.664C403.613,513.664 403.569,513.164 402.794,512.23C401.815,511.051 402.193,510.619 404.921,509.801C406.746,509.254 411.389,507.685 415.239,506.313C419.089,504.942 425.389,502.846 429.239,501.656C433.089,500.467 436.914,498.91 437.739,498.197C438.564,497.484 440.364,496.594 441.739,496.22C443.114,495.845 445.139,495.168 446.239,494.715C447.339,494.263 450.264,493.31 452.739,492.598C455.214,491.886 457.689,490.997 458.239,490.622C458.789,490.247 460.489,489.641 462.017,489.276C466.053,488.312 475.18,483.918 483.419,478.973C487.368,476.603 491.081,474.664 491.669,474.664C492.258,474.664 492.739,474.313 492.739,473.883C492.739,473.166 494.731,472.157 501.894,469.244C504.438,468.209 517.137,457.602 530.421,445.414C533.868,442.252 537.45,439.664 538.381,439.664C539.311,439.664 539.79,439.381 539.444,439.036C538.542,438.134 545.55,429.859 547.827,429.136C548.879,428.802 549.739,428.115 549.739,427.608C549.739,427.102 550.527,425.714 551.489,424.525C555.918,419.055 556.631,418.664 562.183,418.664C566.674,418.664 567.898,419.053 569.183,420.887C570.039,422.109 570.744,424.022 570.749,425.137C570.762,427.903 580.456,440.614 584.05,442.576C591.364,446.57 591.007,445.475 591.928,466.765C592.891,489.028 593.35,494.588 594.685,500.164C595.731,504.535 597.267,516.141 598.269,527.241C599.151,537.019 599.792,537.754 603.901,533.703C607.343,530.308 617.501,514.853 620.357,508.664C621.245,506.739 623.188,503.589 624.674,501.664C627.32,498.237 630.73,491.696 630.749,490.013C630.754,489.546 633.237,484.439 636.268,478.664C639.298,472.889 642.263,466.927 642.856,465.414C643.45,463.902 644.566,462.664 645.337,462.664C646.938,462.664 647.217,461.078 645.773,460.185C645.18,459.819 645.35,458.35 646.214,456.376C646.988,454.61 648.395,450.464 649.341,447.164C651.924,438.162 652.41,437.439 655.031,438.707C657.101,439.708 657.123,439.681 655.39,438.286C653.77,436.983 653.686,436.355 654.715,433.239C655.361,431.281 656.427,429.339 657.085,428.922C657.743,428.505 658.834,427.039 659.509,425.664C661.992,420.61 667.336,414.349 670.74,412.506L674.239,410.611L676.448,413.145C678.834,415.883 681.396,416.42 686.489,415.251C688.277,414.841 689.77,414.879 689.807,415.335C689.844,415.791 690.067,417.642 690.302,419.447C690.593,421.68 690.272,422.906 689.298,423.28C687.137,424.109 688.626,426.664 691.27,426.664C692.543,426.664 694.858,427.713 696.413,428.994C697.967,430.275 700.033,431.614 701.004,431.968C703.156,432.754 705.27,437.718 703.831,438.608C703.233,438.977 703.196,439.786 703.738,440.662C704.229,441.456 704.952,441.785 705.345,441.392C706.346,440.39 708.348,443.542 709.201,447.462C709.785,450.142 710.181,450.542 711.318,449.599C712.088,448.96 712.48,448.053 712.189,447.583C711.899,447.113 712.579,444.83 713.7,442.509C714.822,440.188 715.739,437.724 715.739,437.033C715.739,436.343 716.636,435.149 717.733,434.381C718.829,433.613 719.457,432.716 719.129,432.387C718.8,432.058 719.253,430.342 720.135,428.573C721.017,426.804 721.739,424.526 721.739,423.511C721.739,422.495 722.237,421.664 722.846,421.664C723.455,421.664 723.7,421.004 723.39,420.196C723.08,419.389 723.218,418.486 723.696,418.191C724.174,417.895 724.873,415.744 725.248,413.409C725.624,411.074 726.665,408.039 727.562,406.664C730.527,402.121 733.739,395.352 733.739,393.65C733.739,391.328 737.334,388.295 739.225,389.02C740.485,389.504 740.592,389.258 739.783,387.747C738.542,385.427 739.874,384.188 744.725,383.148C746.642,382.738 748.667,381.84 749.225,381.153C749.783,380.466 751.543,379.6 753.136,379.228C755.682,378.634 756.59,379.137 760.636,383.381C763.168,386.036 768.164,389.719 771.739,391.564C781.419,396.561 782.283,397.645 782.006,404.445C781.753,410.666 783.17,415.46 785.836,417.399C788.765,419.53 789.59,423.659 788.184,429.164C787.4,432.233 787.194,435.716 787.651,438.182C788.488,442.706 788.062,444.982 786.554,444.05C785.881,443.634 785.887,444.071 786.57,445.347C787.136,446.406 787.25,447.838 786.822,448.531C786.394,449.223 785.964,452.237 785.866,455.229C785.768,458.22 785.25,461.822 784.714,463.231C783.399,466.689 783.388,466.664 786.296,466.664C789.151,466.664 793.911,462.077 795.807,457.499C796.453,455.94 797.425,454.664 797.968,454.664C798.51,454.664 798.688,453.972 798.363,453.126C798.027,452.251 798.412,451.343 799.256,451.019C800.072,450.706 800.739,449.809 800.739,449.026C800.739,448.242 801.386,447.353 802.176,447.05C802.966,446.747 803.407,445.961 803.154,445.304C802.902,444.646 804.077,441.257 805.765,437.771C807.454,434.286 809.095,430.136 809.412,428.549C809.73,426.962 810.383,425.664 810.864,425.664C811.345,425.664 811.739,425.058 811.739,424.318C811.739,421.702 814.908,416.664 816.562,416.649C817.852,416.637 817.934,416.44 816.916,415.794C815.847,415.117 815.979,414.108 817.602,410.56C818.707,408.142 820.293,404.477 821.125,402.414C821.956,400.352 823.068,398.664 823.595,398.664C824.121,398.664 824.329,397.811 824.056,396.767C823.783,395.724 824.725,392.783 826.15,390.232C827.574,387.681 828.739,384.709 828.739,383.629C828.739,382.548 829.189,381.664 829.739,381.664C830.289,381.664 830.739,380.998 830.739,380.184C830.739,377.921 839.831,357.664 840.846,357.664C841.337,357.664 841.739,356.314 841.739,354.664C841.739,353.014 842.183,351.664 842.726,351.664C843.268,351.664 844.373,350.082 845.181,348.148C846.624,344.697 852.298,338.664 854.103,338.664C854.607,338.664 856.971,337.69 859.356,336.499C863.407,334.476 864.071,334.421 869.466,335.667C876.276,337.239 877.419,337.994 879.183,342.085C879.913,343.778 882.346,347.042 884.589,349.338C888.692,353.537 892.739,362.83 892.739,368.05C892.739,369.396 893.592,372.488 894.634,374.92C896.072,378.274 896.346,380.348 895.766,383.515C895.077,387.288 895.255,387.881 897.621,389.679C899.061,390.774 899.452,391.395 898.489,391.06C897.201,390.611 896.706,391.007 896.614,392.557C896.416,395.907 896.285,396.452 895.489,397.248C895.077,397.66 894.739,399.393 894.739,401.099C894.739,402.804 893.611,405.861 892.231,407.89C889.591,411.776 889.465,412.72 890.361,421.882C890.816,426.534 890.558,428.12 888.976,430.382C886.677,433.671 885.58,437.503 885.173,443.664C885.009,446.139 884.582,451.989 884.223,456.664C883.864,461.339 883.616,465.614 883.671,466.164C883.727,466.714 883.885,468.289 884.023,469.664C884.256,471.987 885.467,474.336 889.697,480.664C890.616,482.039 891.672,483.677 892.044,484.303C892.423,484.942 890.528,487.741 887.728,490.676C883.489,495.121 882.059,495.987 878.251,496.416C874.17,496.876 873.405,496.595 869.75,493.293C865.155,489.141 865.637,489.298 862.229,490.851C859.797,491.959 859.325,491.715 855.069,487.145C850.754,482.512 850.44,482.353 849.126,484.15C848.363,485.193 847.739,486.38 847.739,486.788C847.739,487.196 846.849,487.812 845.762,488.157C844.674,488.502 842.702,490.895 841.381,493.474C836.744,502.521 836.001,503.693 833.312,506.185C831.821,507.566 830.124,508.402 829.54,508.041C828.932,507.666 828.676,507.975 828.94,508.766C829.705,511.062 826.981,512.94 823.96,512.199C821.403,511.572 821.356,511.619 823.184,512.977C825.056,514.368 825.063,514.521 823.367,517.109C820.168,521.992 818.475,523.499 816.842,522.917C815.961,522.603 815.581,522.721 815.998,523.181C816.888,524.159 812.944,528.664 811.198,528.664C809.964,528.664 804.739,535.881 804.739,537.586C804.739,539.564 800.68,545.332 797.779,547.477C796.127,548.698 792.63,549.969 790.007,550.301C787.385,550.632 784.329,551.468 783.217,552.157C779.309,554.582 773.047,554.944 766.979,553.097C760.24,551.047 758.662,549.948 760.669,548.708C761.743,548.044 761.261,547.487 758.661,546.389C756.779,545.594 753.139,542.743 750.572,540.054C748.006,537.364 744.293,533.851 742.322,532.245C740.352,530.639 738.739,528.754 738.739,528.054C738.739,527.355 738.22,526.461 737.585,526.069C736.95,525.676 736.698,525.788 737.024,526.317C737.351,526.845 736.618,529.052 735.396,531.221C732.571,536.232 730.388,542.307 728.231,551.164C727.294,555.014 726.279,558.839 725.975,559.664C725.672,560.489 725.498,561.654 725.588,562.253C725.679,562.852 724.88,564.132 723.814,565.097C722.747,566.062 722.089,567.413 722.352,568.098C722.615,568.783 722.135,569.921 721.285,570.626C720.435,571.332 719.739,572.474 719.739,573.164C719.739,575.14 716.682,577.169 714.196,576.843C712.95,576.68 711.619,577.05 711.238,577.667C708.671,581.819 697.086,580.97 692.063,576.261C690.246,574.558 686.184,570.914 683.035,568.164C679.887,565.414 675.27,561.173 672.775,558.739C668.248,554.322 668.244,554.313 670.739,553.612L673.239,552.909L670.069,551.717C668.326,551.061 666.653,549.881 666.351,549.094C665.606,547.154 667.665,547.287 669.917,549.325C670.926,550.238 671.982,550.755 672.263,550.473C672.545,550.192 670.967,548.708 668.757,547.177C664.62,544.309 663.396,542.246 666.489,543.353C667.452,543.697 670.264,545.113 672.739,546.5C675.214,547.886 676.936,548.675 676.566,548.252C675.466,546.997 665.377,540.664 664.478,540.664C663.288,540.664 659.264,544.855 658.473,546.917C658.104,547.878 657.29,548.664 656.664,548.664C656.038,548.664 655.791,549.356 656.115,550.202C656.451,551.076 656.067,551.985 655.228,552.307C654.416,552.619 653.995,553.269 654.294,553.752C654.84,554.636 647.597,566.016 645.77,567.145C645.232,567.478 643.11,571.105 641.055,575.207C638.999,579.308 636.962,582.664 636.528,582.664C636.094,582.664 635.739,583.284 635.739,584.042C635.739,584.799 634.995,586.037 634.084,586.792C632.06,588.471 629.585,594.114 629.096,598.164C628.606,602.226 625.796,605.812 621.478,607.886C619.505,608.833 617.609,610.498 617.264,611.585C616.251,614.777 611.007,619.907 610.16,618.535C609.671,617.745 609.863,617.623 610.739,618.164C611.605,618.7 611.807,618.583 611.335,617.819C610.16,615.918 606.084,616.512 604.561,618.806C603.342,620.642 602.822,620.779 600.925,619.764C599.625,619.068 597.277,618.848 595.236,619.231C592.398,619.763 591.639,619.541 591.098,618.024C590.733,617.001 589.774,615.393 588.966,614.451C588.158,613.509 587.76,612.054 588.081,611.217C588.944,608.967 585.309,607.273 583.722,609.185C583.047,609.999 582.068,610.664 581.547,610.664C580.376,610.664 572.094,605.019 569.585,602.51C567.169,600.094 567.107,597.219 569.489,598.09C570.452,598.442 569.889,597.623 568.239,596.271C565.846,594.311 565.489,593.558 566.476,592.552C567.469,591.54 568.172,591.722 570.04,593.477C572.63,595.91 574.955,596.39 574.164,594.328C573.882,593.594 572.096,592.251 570.195,591.345C566.711,589.683 565.899,588.302 567.739,587.164C569.55,586.045 568.781,584.516 566.734,585.166C565.313,585.617 564.564,585.272 564.161,583.983C563.849,582.983 563.135,581.316 562.574,580.28C561.846,578.935 561.9,578.183 562.76,577.651C563.698,577.072 563.695,576.816 562.747,576.5C561.11,575.955 558.695,568.809 559.897,568.067C560.408,567.751 561.493,568.045 562.307,568.721C563.121,569.396 564.06,569.677 564.393,569.344C564.725,569.011 563.864,568.223 562.479,567.591C559.585,566.273 556.884,561.449 558.701,560.844C559.397,560.612 559.48,560.032 558.919,559.317C557.908,558.028 556.646,553.579 556.11,549.414C555.862,547.485 556.201,546.664 557.248,546.664C559.178,546.664 559.128,546.15 556.879,542.874C555.71,541.17 554.206,535.153 552.828,526.664C551.622,519.239 549.984,510.875 549.188,508.076C548.391,505.278 547.739,501.592 547.739,499.885C547.739,496.183 546.358,495.019 544.549,497.197C541.449,500.929 536.062,505.501 529.27,510.164C525.265,512.914 519.81,516.715 517.148,518.611C513.466,521.233 511.223,522.085 507.773,522.174C505.28,522.238 502.217,522.846 500.969,523.524C499.72,524.202 498.257,524.484 497.719,524.151C497.18,523.819 496.739,524.014 496.739,524.586C496.739,525.158 495.502,525.922 493.989,526.283C489.874,527.267 489.448,527.731 491.37,529.136C492.973,530.309 492.857,530.552 489.979,532.04C488.252,532.933 485.916,533.664 484.789,533.664C483.662,533.664 482.739,534.024 482.739,534.463C482.739,535.415 475.732,538.16 474.103,537.847C473.478,537.727 472.727,538.255 472.433,539.02C472.139,539.786 470.293,540.713 468.331,541.081C463.112,542.06 460.538,547.803 464.346,549.97C465.125,550.414 466.857,552.937 468.195,555.578C469.534,558.219 471.717,561.681 473.047,563.272C475.488,566.191 477.288,570.307 476.945,572.181C476.842,572.741 477.767,573.641 478.999,574.181C480.532,574.854 481.338,576.19 481.553,578.414C481.73,580.254 481.401,581.664 480.794,581.664C480.089,581.664 480.038,582.264 480.642,583.414C481.492,585.031 482.94,591.586 484.168,599.375C484.446,601.142 484.305,602.815 483.854,603.093C483.403,603.372 483.238,605.643 483.487,608.139C483.894,612.218 483.752,612.612 482.089,612.024C480.575,611.489 480.466,611.614 481.489,612.717C482.177,613.458 482.739,615.31 482.739,616.833C482.739,619.013 482.367,619.484 480.989,619.051C479.367,618.541 479.37,618.608 481.035,619.976C482.324,621.035 482.645,622.189 482.174,624.067C481.813,625.506 481.137,626.918 480.672,627.206C480.207,627.493 480.082,628.395 480.395,629.209C480.707,630.023 480.455,631.302 479.834,632.05C479.213,632.798 478.968,634.096 479.289,634.933C480.056,636.933 477.953,644.664 476.642,644.664C476.08,644.664 475.926,645.157 476.298,645.76C476.67,646.362 476.425,648.049 475.752,649.51C475.079,650.97 473.964,653.514 473.274,655.164C472.584,656.814 471.535,659.289 470.942,660.664C470.35,662.039 469.547,664.289 469.158,665.664C468.769,667.039 467.391,669.557 466.095,671.259C464.799,672.961 463.739,674.851 463.739,675.459C463.739,676.067 463.177,676.925 462.489,677.365C461.802,677.804 461.239,678.695 461.239,679.344C461.239,679.993 456.471,685.433 450.644,691.432C440.602,701.771 439.714,702.432 433.644,704.093C419.094,708.076 407.7,708.504 402.739,705.253L402.739,705.253ZM388.468,682.06C388.136,681.728 387.274,681.692 386.552,681.981C385.754,682.3 385.991,682.537 387.156,682.585C388.21,682.629 388.801,682.392 388.468,682.06L388.468,682.06ZM372.989,671.002C372.302,670.725 371.177,670.725 370.489,671.002C369.802,671.279 370.364,671.506 371.739,671.506C373.114,671.506 373.677,671.279 372.989,671.002ZM407.869,658.414C411.218,656.423 415.739,651.64 415.739,650.087C415.739,649.305 416.365,648.664 417.131,648.664C417.896,648.664 418.805,647.539 419.15,646.164C419.495,644.789 420.43,643.664 421.227,643.664C422.101,643.664 422.449,643.072 422.104,642.173C421.775,641.315 422.226,640.415 423.165,640.054C424.177,639.666 424.585,638.755 424.238,637.661C423.546,635.48 425.386,630.988 428.334,627.664C430.364,625.374 433.098,615.125 434.293,605.324C434.505,603.586 434.974,600.371 435.336,598.179C436.685,590.013 435.572,561.646 433.805,559.164C433.413,558.614 433.041,557.15 432.978,555.911C432.879,553.973 433.24,553.737 435.551,554.229C438.097,554.77 438.14,554.72 436.349,553.27C434.637,551.883 434.231,551.919 432.029,553.651C428.368,556.531 416.037,559.72 403.239,561.097C400.843,561.355 398.916,564.998 397.771,571.432C397.308,574.035 396.211,579.691 395.334,584.002C393.346,593.771 393.308,612.394 395.254,623.164C396.049,627.564 396.709,633.068 396.72,635.394C396.73,637.72 397.35,641.32 398.096,643.394C398.842,645.468 400.029,648.964 400.733,651.164C403.733,660.531 403.945,660.747 407.869,658.414L407.869,658.414ZM463.719,648.14C463.023,647.302 462.194,646.876 461.876,647.194C461.558,647.513 461.959,648.192 462.768,648.703C464.885,650.042 465.162,649.878 463.719,648.14ZM395.739,646.19C395.739,645.929 394.277,645.002 392.489,644.13L389.239,642.544L391.739,644.582C394.146,646.544 395.739,647.184 395.739,646.19ZM475.739,634.664C475.739,634.114 475.289,633.664 474.739,633.664C474.189,633.664 473.739,634.114 473.739,634.664C473.739,635.214 474.189,635.664 474.739,635.664C475.289,635.664 475.739,635.214 475.739,634.664ZM594.328,607.16C588.106,602.937 586.13,602.312 590.138,605.835C592.283,607.719 594.895,609.326 595.942,609.405C597.27,609.505 596.782,608.825 594.328,607.16ZM582.719,605.14C582.023,604.302 581.248,603.822 580.997,604.074C580.303,604.767 581.712,606.664 582.921,606.664C583.584,606.664 583.508,606.09 582.719,605.14ZM460.645,589.81C459.167,589.302 458.416,590.332 459.264,591.704C459.802,592.574 460.207,592.527 460.832,591.521C461.327,590.724 461.25,590.018 460.645,589.81ZM575.507,585.664C574.82,584.564 573.623,583.664 572.846,583.664C571.927,583.664 572.239,584.363 573.739,585.664C575.008,586.764 576.205,587.664 576.401,587.664C576.596,587.664 576.194,586.764 575.507,585.664ZM569.923,580.448C569.205,579.73 568.739,579.671 568.739,580.298C568.739,581.632 569.922,582.815 570.589,582.148C570.873,581.863 570.573,581.098 569.923,580.448ZM575.239,577.664C575.579,577.114 575.182,576.664 574.357,576.664C573.532,576.664 572.579,577.114 572.239,577.664C571.899,578.214 572.296,578.664 573.121,578.664C573.946,578.664 574.899,578.214 575.239,577.664ZM479.739,576.223C479.739,575.981 479.289,575.504 478.739,575.164C478.189,574.824 477.739,575.023 477.739,575.605C477.739,576.188 478.189,576.664 478.739,576.664C479.289,576.664 479.739,576.466 479.739,576.223ZM579.103,569.444C578.73,568.841 578.152,568.983 577.63,569.807C576.263,571.964 576.602,573.023 578.228,571.673C579.047,570.994 579.441,569.991 579.103,569.444ZM352.739,565.664C352.739,565.114 352.263,564.664 351.68,564.664C351.098,564.664 350.899,565.114 351.239,565.664C351.579,566.214 352.056,566.664 352.298,566.664C352.541,566.664 352.739,566.214 352.739,565.664ZM451.739,564.664C451.739,564.114 451.263,563.664 450.68,563.664C450.098,563.664 449.899,564.114 450.239,564.664C450.579,565.214 451.056,565.664 451.298,565.664C451.541,565.664 451.739,565.214 451.739,564.664ZM437.739,559.664C437.739,559.114 437.263,558.664 436.68,558.664C436.098,558.664 435.899,559.114 436.239,559.664C436.579,560.214 437.056,560.664 437.298,560.664C437.541,560.664 437.739,560.214 437.739,559.664ZM585.739,556.287C585.739,556.079 584.952,555.291 583.989,554.537C582.403,553.293 582.368,553.328 583.612,554.914C584.918,556.58 585.739,557.11 585.739,556.287ZM440.724,551.618C437.084,548.821 435.708,549.248 439.239,552.08C440.889,553.403 442.458,554.269 442.724,554.006C442.991,553.743 442.091,552.668 440.724,551.618ZM591.739,553.825C591.739,553.363 590.502,552.456 588.989,551.809L586.239,550.632L588.6,552.648C591.204,554.872 591.739,555.073 591.739,553.825ZM383.739,551.664C383.739,551.114 383.263,550.664 382.68,550.664C382.098,550.664 381.899,551.114 382.239,551.664C382.579,552.214 383.056,552.664 383.298,552.664C383.541,552.664 383.739,552.214 383.739,551.664ZM599.739,550.223C599.739,549.981 599.289,549.504 598.739,549.164C598.189,548.824 597.739,549.023 597.739,549.605C597.739,550.188 598.189,550.664 598.739,550.664C599.289,550.664 599.739,550.466 599.739,550.223ZM630.51,546.852C630.767,546.082 629.644,545.664 627.323,545.664C623.211,545.664 622.756,546.335 625.989,547.629C628.657,548.698 629.97,548.472 630.51,546.852ZM798.739,544.664C798.739,544.114 798.289,543.664 797.739,543.664C797.189,543.664 796.739,544.114 796.739,544.664C796.739,545.214 797.189,545.664 797.739,545.664C798.289,545.664 798.739,545.214 798.739,544.664ZM725.239,538.664C725.579,538.114 725.182,537.664 724.357,537.664C723.532,537.664 722.579,538.114 722.239,538.664C721.899,539.214 722.296,539.664 723.121,539.664C723.946,539.664 724.899,539.214 725.239,538.664ZM366.083,536.458C366.745,533.927 366.335,533.178 364.806,534.123C363.522,534.916 363.371,538.664 364.623,538.664C365.108,538.664 365.766,537.671 366.083,536.458ZM428.739,535.271C428.739,535.055 428.064,534.619 427.239,534.303C426.414,533.986 425.739,534.163 425.739,534.696C425.739,535.228 426.414,535.664 427.239,535.664C428.064,535.664 428.739,535.487 428.739,535.271ZM801.739,534.664C799.781,533.399 798.457,533.399 799.239,534.664C799.579,535.214 800.618,535.657 801.548,535.649C803.006,535.636 803.032,535.5 801.739,534.664ZM367.64,525.248C367.806,520.39 366.378,523.358 366.105,528.438C365.908,532.095 366.042,532.599 366.695,530.664C367.16,529.289 367.585,526.852 367.64,525.248ZM766.239,530.664C765.899,530.114 765.085,529.671 764.43,529.68C763.715,529.689 763.838,530.082 764.739,530.664C766.66,531.906 767.007,531.906 766.239,530.664ZM669.239,529.079C660.163,522.292 657.512,520.487 658.161,521.538C659.358,523.474 668.8,530.669 670.079,530.62C670.717,530.595 670.339,529.902 669.239,529.079ZM761.239,528.664C760.899,528.114 759.86,527.671 758.93,527.68C757.473,527.693 757.447,527.829 758.739,528.664C760.698,529.93 762.021,529.93 761.239,528.664ZM403.468,526.06C403.136,525.728 402.274,525.692 401.552,525.981C400.754,526.3 400.991,526.537 402.156,526.585C403.21,526.629 403.801,526.392 403.468,526.06L403.468,526.06ZM743.239,520.195C739.869,517.432 738.558,517.029 739.309,518.985C739.587,519.711 741.036,520.788 742.527,521.378C746.493,522.947 746.527,522.89 743.239,520.195ZM562.239,520.664C561.899,520.114 561.171,519.664 560.621,519.664C560.071,519.664 559.899,520.114 560.239,520.664C560.579,521.214 561.307,521.664 561.857,521.664C562.407,521.664 562.579,521.214 562.239,520.664ZM663.719,518.14C663.023,517.302 662.248,516.822 661.997,517.074C661.303,517.767 662.712,519.664 663.921,519.664C664.584,519.664 664.508,519.09 663.719,518.14ZM688.739,518.164C688.739,517.339 688.078,516.664 687.271,516.664C686.376,516.664 686.027,517.251 686.378,518.164C686.694,518.989 687.355,519.664 687.846,519.664C688.337,519.664 688.739,518.989 688.739,518.164ZM704.239,517.664C703.899,517.114 703.171,516.664 702.621,516.664C702.071,516.664 701.899,517.114 702.239,517.664C702.579,518.214 703.307,518.664 703.857,518.664C704.407,518.664 704.579,518.214 704.239,517.664ZM741.739,515.223C741.739,514.981 741.289,514.504 740.739,514.164C740.189,513.824 739.739,514.023 739.739,514.605C739.739,515.188 740.189,515.664 740.739,515.664C741.289,515.664 741.739,515.466 741.739,515.223ZM781.739,513.664C781.739,513.114 781.289,512.664 780.739,512.664C780.189,512.664 779.739,513.114 779.739,513.664C779.739,514.214 780.189,514.664 780.739,514.664C781.289,514.664 781.739,514.214 781.739,513.664ZM758.63,508.222C757.381,506.973 750.46,502.611 750.176,502.894C749.135,503.936 755.241,508.664 757.628,508.664C758.423,508.664 758.873,508.465 758.63,508.222ZM831.239,504.664C831.579,504.114 831.381,503.664 830.798,503.664C830.216,503.664 829.739,504.114 829.739,504.664C829.739,505.214 829.938,505.664 830.18,505.664C830.423,505.664 830.899,505.214 831.239,504.664ZM667.147,502.164C666.246,500.789 664.831,499.664 664.002,499.664C662.71,499.664 662.691,499.915 663.867,501.414C666.904,505.287 669.597,505.902 667.147,502.164ZM793.989,502.002C793.302,501.725 792.177,501.725 791.489,502.002C790.802,502.279 791.364,502.506 792.739,502.506C794.114,502.506 794.677,502.279 793.989,502.002ZM690.739,500.287C690.739,500.079 689.952,499.292 688.989,498.537C687.403,497.293 687.368,497.328 688.612,498.914C689.918,500.58 690.739,501.11 690.739,500.287ZM716.468,500.06C716.136,499.728 715.274,499.692 714.552,499.981C713.754,500.3 713.991,500.537 715.156,500.585C716.21,500.629 716.801,500.392 716.468,500.06L716.468,500.06ZM754.739,500.223C754.739,499.981 754.289,499.504 753.739,499.164C753.189,498.824 752.739,499.023 752.739,499.605C752.739,500.188 753.189,500.664 753.739,500.664C754.289,500.664 754.739,500.466 754.739,500.223ZM759.49,498.914C760.102,497.076 757.059,497.388 756.35,499.237C755.929,500.334 756.25,500.712 757.41,500.487C758.325,500.309 759.261,499.602 759.49,498.914ZM744.239,498.664C743.899,498.114 743.198,497.664 742.68,497.664C742.163,497.664 741.739,498.114 741.739,498.664C741.739,499.214 742.441,499.664 743.298,499.664C744.156,499.664 744.579,499.214 744.239,498.664ZM762.739,496.664C762.739,496.114 762.289,495.664 761.739,495.664C761.189,495.664 760.739,496.114 760.739,496.664C760.739,497.214 761.189,497.664 761.739,497.664C762.289,497.664 762.739,497.214 762.739,496.664ZM586.863,492.398C585.876,491.417 585.761,491.532 586.304,492.957C586.679,493.944 587.238,494.499 587.546,494.191C587.854,493.883 587.547,493.076 586.863,492.398ZM663.739,492.279C663.739,492.067 662.502,491.098 660.989,490.124L658.239,488.355L660.144,490.509C661.83,492.416 663.739,493.356 663.739,492.279ZM669.239,491.664C668.899,491.114 668.171,490.664 667.621,490.664C667.071,490.664 666.899,491.114 667.239,491.664C667.579,492.214 668.307,492.664 668.857,492.664C669.407,492.664 669.579,492.214 669.239,491.664ZM650.239,487.077C644.724,482.454 641.739,480.519 641.739,481.567C641.739,482.465 651.363,489.454 652.739,489.556C653.014,489.576 651.889,488.461 650.239,487.077ZM658.343,480.935C657.327,479.919 656.488,481.449 657.322,482.798C657.952,483.818 658.188,483.819 658.526,482.802C658.758,482.108 658.676,481.267 658.343,480.935L658.343,480.935ZM714.739,479.664C714.739,479.114 714.289,478.664 713.739,478.664C713.189,478.664 712.739,479.114 712.739,479.664C712.739,480.214 713.189,480.664 713.739,480.664C714.289,480.664 714.739,480.214 714.739,479.664ZM651.239,476.664C650.899,476.114 649.946,475.664 649.121,475.664C648.296,475.664 647.899,476.114 648.239,476.664C648.579,477.214 649.532,477.664 650.357,477.664C651.182,477.664 651.579,477.214 651.239,476.664ZM684.18,473.196C683.113,472.389 681.789,471.728 681.239,471.728C680.689,471.728 681.113,472.389 682.18,473.196C683.248,474.004 684.572,474.664 685.122,474.664C685.672,474.664 685.248,474.004 684.18,473.196ZM715.243,472.67C714.904,472.123 713.64,471.157 712.434,470.524C710.254,469.381 710.252,469.388 712.144,471.519C714.053,473.668 716.398,474.539 715.243,472.67ZM721.239,471.664C720.899,471.114 720.171,470.664 719.621,470.664C719.071,470.664 718.899,471.114 719.239,471.664C719.579,472.214 720.307,472.664 720.857,472.664C721.407,472.664 721.579,472.214 721.239,471.664ZM702.739,462.271C702.739,462.055 702.041,461.61 701.187,461.283C700.297,460.941 699.896,461.109 700.246,461.676C700.834,462.626 702.739,463.081 702.739,462.271ZM738.739,460.164C737.447,458.789 735.941,457.664 735.391,457.664C734.841,457.664 735.448,458.789 736.739,460.164C738.031,461.539 739.538,462.664 740.088,462.664C740.638,462.664 740.031,461.539 738.739,460.164ZM732.739,460.664C732.739,460.114 732.289,459.664 731.739,459.664C731.189,459.664 730.739,460.114 730.739,460.664C730.739,461.214 731.189,461.664 731.739,461.664C732.289,461.664 732.739,461.214 732.739,460.664ZM837.507,451.664C836.82,450.564 835.847,449.664 835.344,449.664C834.841,449.664 835.244,450.564 836.239,451.664C837.235,452.764 838.208,453.664 838.403,453.664C838.597,453.664 838.194,452.764 837.507,451.664ZM877.759,449.188C877.064,448.35 876.03,447.664 875.462,447.664C874.894,447.664 875.246,448.567 876.245,449.67C878.313,451.956 879.692,451.517 877.759,449.188ZM727.739,450.287C727.739,450.079 726.952,449.291 725.989,448.537C724.403,447.293 724.368,447.328 725.612,448.914C726.918,450.58 727.739,451.11 727.739,450.287ZM664.166,446.186C661.243,443.974 659.896,444.445 662.631,446.722C663.946,447.818 665.263,448.473 665.558,448.179C665.852,447.884 665.226,446.988 664.166,446.186ZM700.739,436.633C700.739,435.003 697.726,434.276 696.422,435.591C695.509,436.511 695.638,436.631 696.989,436.116C698.003,435.73 698.739,435.916 698.739,436.557C698.739,437.166 699.189,437.664 699.739,437.664C700.289,437.664 700.739,437.2 700.739,436.633ZM732.739,435.771C732.739,435.28 732.001,434.595 731.098,434.248C729.725,433.722 729.663,433.868 730.72,435.141C732.16,436.877 732.739,437.057 732.739,435.771ZM669.739,430.664C669.739,430.114 669.289,429.664 668.739,429.664C668.189,429.664 667.739,430.114 667.739,430.664C667.739,431.214 668.189,431.664 668.739,431.664C669.289,431.664 669.739,431.214 669.739,430.664ZM694.239,430.664C693.899,430.114 693.198,429.664 692.68,429.664C692.163,429.664 691.739,430.114 691.739,430.664C691.739,431.214 692.441,431.664 693.298,431.664C694.156,431.664 694.579,431.214 694.239,430.664ZM774.103,426.17C773.788,425.348 773.119,424.929 772.618,425.239C771.57,425.887 772.411,427.664 773.767,427.664C774.267,427.664 774.418,426.992 774.103,426.17ZM677.239,424.664C677.579,424.114 677.182,423.664 676.357,423.664C675.532,423.664 674.579,424.114 674.239,424.664C673.899,425.214 674.296,425.664 675.121,425.664C675.946,425.664 676.899,425.214 677.239,424.664ZM775.239,412.664C774.899,412.114 774.171,411.664 773.621,411.664C773.071,411.664 772.899,412.114 773.239,412.664C773.579,413.214 774.307,413.664 774.857,413.664C775.407,413.664 775.579,413.214 775.239,412.664ZM738.739,408.779C738.739,408.292 737.502,407.103 735.989,406.135L733.239,404.376L735.664,407.02C738.285,409.879 738.739,410.139 738.739,408.779ZM776.489,401.975C775.527,401.723 774.739,400.902 774.739,400.15C774.739,399.398 774.345,398.539 773.864,398.241C773.383,397.944 772.989,398.817 772.989,400.182C772.989,402.224 773.455,402.644 775.614,402.548C777.308,402.473 777.619,402.27 776.489,401.975ZM755.739,391.164C755.032,390.313 754.229,389.841 753.954,390.116C753.679,390.391 754.032,391.313 754.739,392.164C755.446,393.016 756.249,393.488 756.524,393.213C756.799,392.938 756.446,392.016 755.739,391.164ZM750.739,385.223C750.739,384.981 750.289,384.504 749.739,384.164C749.189,383.824 748.739,384.023 748.739,384.605C748.739,385.188 749.189,385.664 749.739,385.664C750.289,385.664 750.739,385.466 750.739,385.223ZM725.239,705.664C729.64,703.627 731.739,703.239 731.739,704.464C731.739,706.357 729.053,707.659 725.289,707.59L721.239,707.516L725.239,705.664ZM741.238,702.662C740.898,702.111 741.8,701.211 743.244,700.662C746.812,699.306 746.968,699.368 745.739,701.664C744.598,703.797 742.26,704.315 741.238,702.662ZM630.968,471.477C631.586,469.622 633.739,469.315 633.739,471.081C633.739,471.952 633.027,472.664 632.156,472.664C631.285,472.664 630.751,472.13 630.968,471.477ZM212.739,455.664C212.739,455.114 213.441,454.664 214.298,454.664C215.156,454.664 215.579,455.114 215.239,455.664C214.899,456.214 214.198,456.664 213.68,456.664C213.163,456.664 212.739,456.214 212.739,455.664ZM785.198,393.598C784.836,393.011 784.779,392.291 785.073,391.998C785.789,391.281 787.739,392.543 787.739,393.723C787.739,395.001 786.013,394.916 785.198,393.598ZM819.198,391.598C818.836,391.011 818.779,390.291 819.073,389.998C819.789,389.281 821.739,390.543 821.739,391.723C821.739,393.001 820.013,392.916 819.198,391.598ZM430.239,344.664C430.579,344.114 431.056,343.664 431.298,343.664C431.541,343.664 431.739,344.114 431.739,344.664C431.739,345.214 431.263,345.664 430.68,345.664C430.098,345.664 429.899,345.214 430.239,344.664ZM602.739,311.081C601.364,310.318 599.256,309.687 598.054,309.679C594.629,309.656 591.36,308.099 588.692,305.221C587.343,303.766 583.942,301.019 581.134,299.118C578.326,297.217 574.775,294.5 573.242,293.079C570.461,290.501 570.457,290.481 571.127,280.943C571.894,270.032 573.141,267.548 580.334,262.599C586.753,258.183 590.793,257.772 595.723,261.035C598.041,262.568 599.981,264.778 600.37,266.327C600.737,267.79 602.523,270.292 604.34,271.887C606.157,273.482 607.954,275.766 608.334,276.963C608.714,278.159 610.128,280.805 611.477,282.843C612.825,284.881 613.634,287.025 613.275,287.606C612.898,288.217 613.477,288.664 614.645,288.664C618.281,288.664 619.547,294.165 618.529,305.542C618.364,307.386 609.881,312.69 607.293,312.566C606.164,312.512 604.114,311.844 602.739,311.081ZM483.739,285.664C482.532,284.884 482.691,284.692 484.548,284.68C485.836,284.671 486.584,285.107 486.239,285.664C485.496,286.867 485.6,286.867 483.739,285.664ZM890.812,226.029C889.672,224.58 888.739,223.06 888.739,222.651C888.739,222.242 885.548,218.59 881.648,214.536C872.317,204.836 871.612,203.121 872.832,193.098C873.363,188.734 873.991,183.367 874.227,181.17C874.815,175.706 876.769,167.612 878.121,165.035C879.993,161.47 884.946,158.01 890.825,156.16C896.141,154.487 896.539,154.487 899.075,156.148C900.54,157.109 901.739,158.465 901.739,159.163C901.739,159.86 902.639,160.666 903.739,160.954C905.182,161.331 905.739,162.318 905.739,164.494C905.739,166.705 906.833,168.583 909.838,171.528C913.177,174.801 914.291,176.901 915.848,182.855C916.899,186.875 918.631,192.864 919.697,196.164C923.402,207.635 923.408,211.08 919.74,218.662C917.146,224.024 916.096,225.309 914.623,224.924C913.603,224.657 911.975,224.786 911.004,225.21C910.034,225.635 908.789,225.865 908.239,225.723C905.348,224.976 899.483,225.73 897.525,227.101C894.432,229.268 893.205,229.072 890.812,226.029L890.812,226.029Z" style="fill:white;fill-rule:nonzero;"/>
    </g>
</svg>
